G04 PROTEUS GERBER X2 FILE*
%TF.GenerationSoftware,Labcenter,Proteus,8.13-SP0-Build31525*%
%TF.CreationDate,2025-01-18T15:37:42+00:00*%
%TF.FileFunction,Legend,Top*%
%TF.FilePolarity,Positive*%
%TF.Part,Single*%
%TF.SameCoordinates,{6578d0ff-8a4d-4828-9911-fb9daf4c42ae}*%
%FSLAX45Y45*%
%MOMM*%
G01*
%TA.AperFunction,Material*%
%ADD18C,0.203200*%
%TD.AperFunction*%
D18*
X+1108000Y+2774000D02*
X+92000Y+2774000D01*
X+1108000Y+1250000D02*
X+92000Y+1250000D01*
X+92000Y+2774000D02*
X+92000Y+1250000D01*
X+1108000Y+1250000D02*
X+1108000Y+2774000D01*
X+1209600Y+1885000D02*
X+1224840Y+1885000D01*
X+1240080Y+1900875D01*
X+1240080Y+1964375D01*
X+1224840Y+1980250D01*
X+1148640Y+1980250D01*
X+1179120Y+2043750D02*
X+1148640Y+2075500D01*
X+1240080Y+2075500D01*
X+1739000Y+2773000D02*
X+2501000Y+2773000D01*
X+2501000Y+3027000D01*
X+1739000Y+3027000D01*
X+1739000Y+2773000D01*
X+1739000Y+3027000D02*
X+1739000Y+3154000D01*
X+2501000Y+3154000D01*
X+2501000Y+3027000D01*
X+1739000Y+3027000D02*
X+1866000Y+3154000D01*
X+1866000Y+3027000D02*
X+1993000Y+3154000D01*
X+1993000Y+3027000D02*
X+2120000Y+3154000D01*
X+2120000Y+3027000D02*
X+2247000Y+3154000D01*
X+2247000Y+3027000D02*
X+2374000Y+3154000D01*
X+2374000Y+3027000D02*
X+2501000Y+3154000D01*
X+1993000Y+3255600D02*
X+2024750Y+3286080D01*
X+2056500Y+3286080D01*
X+2088250Y+3255600D01*
X+2088250Y+3225120D01*
X+2056500Y+3194640D01*
X+2024750Y+3194640D01*
X+1993000Y+3225120D01*
X+1993000Y+3255600D01*
X+2056500Y+3225120D02*
X+2088250Y+3194640D01*
X+2151750Y+3255600D02*
X+2183500Y+3286080D01*
X+2183500Y+3194640D01*
X+3119000Y+2773000D02*
X+3881000Y+2773000D01*
X+3881000Y+3027000D01*
X+3119000Y+3027000D01*
X+3119000Y+2773000D01*
X+3119000Y+3027000D02*
X+3119000Y+3154000D01*
X+3881000Y+3154000D01*
X+3881000Y+3027000D01*
X+3119000Y+3027000D02*
X+3246000Y+3154000D01*
X+3246000Y+3027000D02*
X+3373000Y+3154000D01*
X+3373000Y+3027000D02*
X+3500000Y+3154000D01*
X+3500000Y+3027000D02*
X+3627000Y+3154000D01*
X+3627000Y+3027000D02*
X+3754000Y+3154000D01*
X+3754000Y+3027000D02*
X+3881000Y+3154000D01*
X+3373000Y+3255600D02*
X+3404750Y+3286080D01*
X+3436500Y+3286080D01*
X+3468250Y+3255600D01*
X+3468250Y+3225120D01*
X+3436500Y+3194640D01*
X+3404750Y+3194640D01*
X+3373000Y+3225120D01*
X+3373000Y+3255600D01*
X+3436500Y+3225120D02*
X+3468250Y+3194640D01*
X+3515875Y+3270840D02*
X+3531750Y+3286080D01*
X+3579375Y+3286080D01*
X+3595250Y+3270840D01*
X+3595250Y+3255600D01*
X+3579375Y+3240360D01*
X+3531750Y+3240360D01*
X+3515875Y+3225120D01*
X+3515875Y+3194640D01*
X+3595250Y+3194640D01*
X+4349000Y+2773000D02*
X+5111000Y+2773000D01*
X+5111000Y+3027000D01*
X+4349000Y+3027000D01*
X+4349000Y+2773000D01*
X+4349000Y+3027000D02*
X+4349000Y+3154000D01*
X+5111000Y+3154000D01*
X+5111000Y+3027000D01*
X+4349000Y+3027000D02*
X+4476000Y+3154000D01*
X+4476000Y+3027000D02*
X+4603000Y+3154000D01*
X+4603000Y+3027000D02*
X+4730000Y+3154000D01*
X+4730000Y+3027000D02*
X+4857000Y+3154000D01*
X+4857000Y+3027000D02*
X+4984000Y+3154000D01*
X+4984000Y+3027000D02*
X+5111000Y+3154000D01*
X+4603000Y+3255600D02*
X+4634750Y+3286080D01*
X+4666500Y+3286080D01*
X+4698250Y+3255600D01*
X+4698250Y+3225120D01*
X+4666500Y+3194640D01*
X+4634750Y+3194640D01*
X+4603000Y+3225120D01*
X+4603000Y+3255600D01*
X+4666500Y+3225120D02*
X+4698250Y+3194640D01*
X+4745875Y+3270840D02*
X+4761750Y+3286080D01*
X+4809375Y+3286080D01*
X+4825250Y+3270840D01*
X+4825250Y+3255600D01*
X+4809375Y+3240360D01*
X+4825250Y+3225120D01*
X+4825250Y+3209880D01*
X+4809375Y+3194640D01*
X+4761750Y+3194640D01*
X+4745875Y+3209880D01*
X+4777625Y+3240360D02*
X+4809375Y+3240360D01*
X+5569000Y+2763000D02*
X+6331000Y+2763000D01*
X+6331000Y+3017000D01*
X+5569000Y+3017000D01*
X+5569000Y+2763000D01*
X+5569000Y+3017000D02*
X+5569000Y+3144000D01*
X+6331000Y+3144000D01*
X+6331000Y+3017000D01*
X+5569000Y+3017000D02*
X+5696000Y+3144000D01*
X+5696000Y+3017000D02*
X+5823000Y+3144000D01*
X+5823000Y+3017000D02*
X+5950000Y+3144000D01*
X+5950000Y+3017000D02*
X+6077000Y+3144000D01*
X+6077000Y+3017000D02*
X+6204000Y+3144000D01*
X+6204000Y+3017000D02*
X+6331000Y+3144000D01*
X+5823000Y+3245600D02*
X+5854750Y+3276080D01*
X+5886500Y+3276080D01*
X+5918250Y+3245600D01*
X+5918250Y+3215120D01*
X+5886500Y+3184640D01*
X+5854750Y+3184640D01*
X+5823000Y+3215120D01*
X+5823000Y+3245600D01*
X+5886500Y+3215120D02*
X+5918250Y+3184640D01*
X+6045250Y+3215120D02*
X+5950000Y+3215120D01*
X+6013500Y+3276080D01*
X+6013500Y+3184640D01*
X+4470000Y+1587000D02*
X+4470000Y+1714000D01*
X+4406500Y+1714000D02*
X+4533500Y+1714000D01*
X+4533500Y+2222000D01*
X+4406500Y+2222000D01*
X+4406500Y+1714000D01*
X+4470000Y+2222000D02*
X+4470000Y+2349000D01*
X+4365860Y+1841000D02*
X+4274420Y+1841000D01*
X+4274420Y+1920375D01*
X+4289660Y+1936250D01*
X+4304900Y+1936250D01*
X+4320140Y+1920375D01*
X+4320140Y+1841000D01*
X+4320140Y+1920375D02*
X+4335380Y+1936250D01*
X+4365860Y+1936250D01*
X+4304900Y+1999750D02*
X+4274420Y+2031500D01*
X+4365860Y+2031500D01*
X+1870000Y+1587000D02*
X+1870000Y+1714000D01*
X+1806500Y+1714000D02*
X+1933500Y+1714000D01*
X+1933500Y+2222000D01*
X+1806500Y+2222000D01*
X+1806500Y+1714000D01*
X+1870000Y+2222000D02*
X+1870000Y+2349000D01*
X+1765860Y+1841000D02*
X+1674420Y+1841000D01*
X+1674420Y+1920375D01*
X+1689660Y+1936250D01*
X+1704900Y+1936250D01*
X+1720140Y+1920375D01*
X+1720140Y+1841000D01*
X+1720140Y+1920375D02*
X+1735380Y+1936250D01*
X+1765860Y+1936250D01*
X+1689660Y+1983875D02*
X+1674420Y+1999750D01*
X+1674420Y+2047375D01*
X+1689660Y+2063250D01*
X+1704900Y+2063250D01*
X+1720140Y+2047375D01*
X+1720140Y+1999750D01*
X+1735380Y+1983875D01*
X+1765860Y+1983875D01*
X+1765860Y+2063250D01*
X+3270000Y+1587000D02*
X+3270000Y+1714000D01*
X+3206500Y+1714000D02*
X+3333500Y+1714000D01*
X+3333500Y+2222000D01*
X+3206500Y+2222000D01*
X+3206500Y+1714000D01*
X+3270000Y+2222000D02*
X+3270000Y+2349000D01*
X+3165860Y+1841000D02*
X+3074420Y+1841000D01*
X+3074420Y+1920375D01*
X+3089660Y+1936250D01*
X+3104900Y+1936250D01*
X+3120140Y+1920375D01*
X+3120140Y+1841000D01*
X+3120140Y+1920375D02*
X+3135380Y+1936250D01*
X+3165860Y+1936250D01*
X+3089660Y+1983875D02*
X+3074420Y+1999750D01*
X+3074420Y+2047375D01*
X+3089660Y+2063250D01*
X+3104900Y+2063250D01*
X+3120140Y+2047375D01*
X+3135380Y+2063250D01*
X+3150620Y+2063250D01*
X+3165860Y+2047375D01*
X+3165860Y+1999750D01*
X+3150620Y+1983875D01*
X+3120140Y+2015625D02*
X+3120140Y+2047375D01*
X+5680000Y+1577000D02*
X+5680000Y+1704000D01*
X+5616500Y+1704000D02*
X+5743500Y+1704000D01*
X+5743500Y+2212000D01*
X+5616500Y+2212000D01*
X+5616500Y+1704000D01*
X+5680000Y+2212000D02*
X+5680000Y+2339000D01*
X+5575860Y+1831000D02*
X+5484420Y+1831000D01*
X+5484420Y+1910375D01*
X+5499660Y+1926250D01*
X+5514900Y+1926250D01*
X+5530140Y+1910375D01*
X+5530140Y+1831000D01*
X+5530140Y+1910375D02*
X+5545380Y+1926250D01*
X+5575860Y+1926250D01*
X+5545380Y+2053250D02*
X+5545380Y+1958000D01*
X+5484420Y+2021500D01*
X+5575860Y+2021500D01*
X+1815000Y+563000D02*
X+2577000Y+563000D01*
X+2577000Y+817000D01*
X+1815000Y+817000D01*
X+1815000Y+563000D01*
X+2577000Y+563000D02*
X+2577000Y+436000D01*
X+1815000Y+436000D01*
X+1815000Y+563000D01*
X+2577000Y+563000D02*
X+2450000Y+436000D01*
X+2450000Y+563000D02*
X+2323000Y+436000D01*
X+2323000Y+563000D02*
X+2196000Y+436000D01*
X+2196000Y+563000D02*
X+2069000Y+436000D01*
X+2069000Y+563000D02*
X+1942000Y+436000D01*
X+1942000Y+563000D02*
X+1815000Y+436000D01*
X+2069000Y+364880D02*
X+2100750Y+395360D01*
X+2132500Y+395360D01*
X+2164250Y+364880D01*
X+2164250Y+334400D01*
X+2132500Y+303920D01*
X+2100750Y+303920D01*
X+2069000Y+334400D01*
X+2069000Y+364880D01*
X+2132500Y+334400D02*
X+2164250Y+303920D01*
X+2291250Y+380120D02*
X+2275375Y+395360D01*
X+2227750Y+395360D01*
X+2211875Y+380120D01*
X+2211875Y+319160D01*
X+2227750Y+303920D01*
X+2275375Y+303920D01*
X+2291250Y+319160D01*
X+2291250Y+334400D01*
X+2275375Y+349640D01*
X+2211875Y+349640D01*
X+3095000Y+573000D02*
X+3857000Y+573000D01*
X+3857000Y+827000D01*
X+3095000Y+827000D01*
X+3095000Y+573000D01*
X+3857000Y+573000D02*
X+3857000Y+446000D01*
X+3095000Y+446000D01*
X+3095000Y+573000D01*
X+3857000Y+573000D02*
X+3730000Y+446000D01*
X+3730000Y+573000D02*
X+3603000Y+446000D01*
X+3603000Y+573000D02*
X+3476000Y+446000D01*
X+3476000Y+573000D02*
X+3349000Y+446000D01*
X+3349000Y+573000D02*
X+3222000Y+446000D01*
X+3222000Y+573000D02*
X+3095000Y+446000D01*
X+3349000Y+374880D02*
X+3380750Y+405360D01*
X+3412500Y+405360D01*
X+3444250Y+374880D01*
X+3444250Y+344400D01*
X+3412500Y+313920D01*
X+3380750Y+313920D01*
X+3349000Y+344400D01*
X+3349000Y+374880D01*
X+3412500Y+344400D02*
X+3444250Y+313920D01*
X+3491875Y+405360D02*
X+3571250Y+405360D01*
X+3571250Y+390120D01*
X+3491875Y+313920D01*
X+4403000Y+573000D02*
X+5165000Y+573000D01*
X+5165000Y+827000D01*
X+4403000Y+827000D01*
X+4403000Y+573000D01*
X+5165000Y+573000D02*
X+5165000Y+446000D01*
X+4403000Y+446000D01*
X+4403000Y+573000D01*
X+5165000Y+573000D02*
X+5038000Y+446000D01*
X+5038000Y+573000D02*
X+4911000Y+446000D01*
X+4911000Y+573000D02*
X+4784000Y+446000D01*
X+4784000Y+573000D02*
X+4657000Y+446000D01*
X+4657000Y+573000D02*
X+4530000Y+446000D01*
X+4530000Y+573000D02*
X+4403000Y+446000D01*
X+4657000Y+374880D02*
X+4688750Y+405360D01*
X+4720500Y+405360D01*
X+4752250Y+374880D01*
X+4752250Y+344400D01*
X+4720500Y+313920D01*
X+4688750Y+313920D01*
X+4657000Y+344400D01*
X+4657000Y+374880D01*
X+4720500Y+344400D02*
X+4752250Y+313920D01*
X+4815750Y+359640D02*
X+4799875Y+374880D01*
X+4799875Y+390120D01*
X+4815750Y+405360D01*
X+4863375Y+405360D01*
X+4879250Y+390120D01*
X+4879250Y+374880D01*
X+4863375Y+359640D01*
X+4815750Y+359640D01*
X+4799875Y+344400D01*
X+4799875Y+329160D01*
X+4815750Y+313920D01*
X+4863375Y+313920D01*
X+4879250Y+329160D01*
X+4879250Y+344400D01*
X+4863375Y+359640D01*
X+7588000Y+2284000D02*
X+6572000Y+2284000D01*
X+7588000Y+1268000D02*
X+6572000Y+1268000D01*
X+6572000Y+2284000D02*
X+6572000Y+1268000D01*
X+7588000Y+2284000D02*
X+7588000Y+1268000D01*
X+7689600Y+1649000D02*
X+7704840Y+1649000D01*
X+7720080Y+1664875D01*
X+7720080Y+1728375D01*
X+7704840Y+1744250D01*
X+7628640Y+1744250D01*
X+7643880Y+1791875D02*
X+7628640Y+1807750D01*
X+7628640Y+1855375D01*
X+7643880Y+1871250D01*
X+7659120Y+1871250D01*
X+7674360Y+1855375D01*
X+7689600Y+1871250D01*
X+7704840Y+1871250D01*
X+7720080Y+1855375D01*
X+7720080Y+1807750D01*
X+7704840Y+1791875D01*
X+7674360Y+1823625D02*
X+7674360Y+1855375D01*
X+5559000Y+563000D02*
X+6321000Y+563000D01*
X+6321000Y+817000D01*
X+5559000Y+817000D01*
X+5559000Y+563000D01*
X+6321000Y+563000D02*
X+6321000Y+436000D01*
X+5559000Y+436000D01*
X+5559000Y+563000D01*
X+6321000Y+563000D02*
X+6194000Y+436000D01*
X+6194000Y+563000D02*
X+6067000Y+436000D01*
X+6067000Y+563000D02*
X+5940000Y+436000D01*
X+5940000Y+563000D02*
X+5813000Y+436000D01*
X+5813000Y+563000D02*
X+5686000Y+436000D01*
X+5686000Y+563000D02*
X+5559000Y+436000D01*
X+5813000Y+364880D02*
X+5844750Y+395360D01*
X+5876500Y+395360D01*
X+5908250Y+364880D01*
X+5908250Y+334400D01*
X+5876500Y+303920D01*
X+5844750Y+303920D01*
X+5813000Y+334400D01*
X+5813000Y+364880D01*
X+5876500Y+334400D02*
X+5908250Y+303920D01*
X+6035250Y+395360D02*
X+5955875Y+395360D01*
X+5955875Y+364880D01*
X+6019375Y+364880D01*
X+6035250Y+349640D01*
X+6035250Y+319160D01*
X+6019375Y+303920D01*
X+5971750Y+303920D01*
X+5955875Y+319160D01*
X+3740000Y+2013000D02*
X+3740000Y+1886000D01*
X+3676500Y+1378000D02*
X+3803500Y+1378000D01*
X+3803500Y+1886000D01*
X+3676500Y+1886000D01*
X+3676500Y+1378000D01*
X+3740000Y+1378000D02*
X+3740000Y+1251000D01*
X+3935580Y+1505000D02*
X+3844140Y+1505000D01*
X+3844140Y+1584375D01*
X+3859380Y+1600250D01*
X+3874620Y+1600250D01*
X+3889860Y+1584375D01*
X+3889860Y+1505000D01*
X+3889860Y+1584375D02*
X+3905100Y+1600250D01*
X+3935580Y+1600250D01*
X+3844140Y+1727250D02*
X+3844140Y+1647875D01*
X+3874620Y+1647875D01*
X+3874620Y+1711375D01*
X+3889860Y+1727250D01*
X+3920340Y+1727250D01*
X+3935580Y+1711375D01*
X+3935580Y+1663750D01*
X+3920340Y+1647875D01*
X+6200000Y+2003000D02*
X+6200000Y+1876000D01*
X+6136500Y+1368000D02*
X+6263500Y+1368000D01*
X+6263500Y+1876000D01*
X+6136500Y+1876000D01*
X+6136500Y+1368000D01*
X+6200000Y+1368000D02*
X+6200000Y+1241000D01*
X+6395580Y+1495000D02*
X+6304140Y+1495000D01*
X+6304140Y+1574375D01*
X+6319380Y+1590250D01*
X+6334620Y+1590250D01*
X+6349860Y+1574375D01*
X+6349860Y+1495000D01*
X+6349860Y+1574375D02*
X+6365100Y+1590250D01*
X+6395580Y+1590250D01*
X+6319380Y+1717250D02*
X+6304140Y+1701375D01*
X+6304140Y+1653750D01*
X+6319380Y+1637875D01*
X+6380340Y+1637875D01*
X+6395580Y+1653750D01*
X+6395580Y+1701375D01*
X+6380340Y+1717250D01*
X+6365100Y+1717250D01*
X+6349860Y+1701375D01*
X+6349860Y+1637875D01*
X+2480000Y+2023000D02*
X+2480000Y+1896000D01*
X+2416500Y+1388000D02*
X+2543500Y+1388000D01*
X+2543500Y+1896000D01*
X+2416500Y+1896000D01*
X+2416500Y+1388000D01*
X+2480000Y+1388000D02*
X+2480000Y+1261000D01*
X+2675580Y+1515000D02*
X+2584140Y+1515000D01*
X+2584140Y+1594375D01*
X+2599380Y+1610250D01*
X+2614620Y+1610250D01*
X+2629860Y+1594375D01*
X+2629860Y+1515000D01*
X+2629860Y+1594375D02*
X+2645100Y+1610250D01*
X+2675580Y+1610250D01*
X+2584140Y+1657875D02*
X+2584140Y+1737250D01*
X+2599380Y+1737250D01*
X+2675580Y+1657875D01*
X+5040000Y+1973000D02*
X+5040000Y+1846000D01*
X+4976500Y+1338000D02*
X+5103500Y+1338000D01*
X+5103500Y+1846000D01*
X+4976500Y+1846000D01*
X+4976500Y+1338000D01*
X+5040000Y+1338000D02*
X+5040000Y+1211000D01*
X+5225580Y+1495000D02*
X+5134140Y+1495000D01*
X+5134140Y+1574375D01*
X+5149380Y+1590250D01*
X+5164620Y+1590250D01*
X+5179860Y+1574375D01*
X+5179860Y+1495000D01*
X+5179860Y+1574375D02*
X+5195100Y+1590250D01*
X+5225580Y+1590250D01*
X+5179860Y+1653750D02*
X+5164620Y+1637875D01*
X+5149380Y+1637875D01*
X+5134140Y+1653750D01*
X+5134140Y+1701375D01*
X+5149380Y+1717250D01*
X+5164620Y+1717250D01*
X+5179860Y+1701375D01*
X+5179860Y+1653750D01*
X+5195100Y+1637875D01*
X+5210340Y+1637875D01*
X+5225580Y+1653750D01*
X+5225580Y+1701375D01*
X+5210340Y+1717250D01*
X+5195100Y+1717250D01*
X+5179860Y+1701375D01*
M02*
