G04 PROTEUS GERBER X2 FILE*
%TF.GenerationSoftware,Labcenter,Proteus,8.13-SP0-Build31525*%
%TF.CreationDate,2025-01-18T15:37:42+00:00*%
%TF.FileFunction,Soldermask,Bot*%
%TF.FilePolarity,Negative*%
%TF.Part,Single*%
%TF.SameCoordinates,{6578d0ff-8a4d-4828-9911-fb9daf4c42ae}*%
%FSLAX45Y45*%
%MOMM*%
G01*
%TA.AperFunction,Material*%
%ADD19C,3.302000*%
%AMPPAD010*
4,1,36,
-1.016000,1.143000,
1.016000,1.143000,
1.041970,1.140470,
1.065980,1.133200,
1.087580,1.121650,
1.106290,1.106290,
1.121650,1.087570,
1.133200,1.065980,
1.140470,1.041970,
1.143000,1.016000,
1.143000,-1.016000,
1.140470,-1.041970,
1.133200,-1.065980,
1.121650,-1.087570,
1.106290,-1.106290,
1.087580,-1.121650,
1.065980,-1.133200,
1.041970,-1.140470,
1.016000,-1.143000,
-1.016000,-1.143000,
-1.041970,-1.140470,
-1.065980,-1.133200,
-1.087580,-1.121650,
-1.106290,-1.106290,
-1.121650,-1.087570,
-1.133200,-1.065980,
-1.140470,-1.041970,
-1.143000,-1.016000,
-1.143000,1.016000,
-1.140470,1.041970,
-1.133200,1.065980,
-1.121650,1.087570,
-1.106290,1.106290,
-1.087580,1.121650,
-1.065980,1.133200,
-1.041970,1.140470,
-1.016000,1.143000,
0*%
%ADD70PPAD010*%
%TA.AperFunction,Material*%
%ADD71C,2.032000*%
%TD.AperFunction*%
D19*
X+600000Y+2520000D03*
X+600000Y+2012000D03*
X+600000Y+1504000D03*
D70*
X+1866000Y+2900000D03*
X+2120000Y+2900000D03*
X+2374000Y+2900000D03*
X+3246000Y+2900000D03*
X+3500000Y+2900000D03*
X+3754000Y+2900000D03*
X+4476000Y+2900000D03*
X+4730000Y+2900000D03*
X+4984000Y+2900000D03*
X+5696000Y+2890000D03*
X+5950000Y+2890000D03*
X+6204000Y+2890000D03*
D71*
X+4470000Y+1460000D03*
X+4470000Y+2476000D03*
X+1870000Y+1460000D03*
X+1870000Y+2476000D03*
X+3270000Y+1460000D03*
X+3270000Y+2476000D03*
X+5680000Y+1450000D03*
X+5680000Y+2466000D03*
D70*
X+2450000Y+690000D03*
X+2196000Y+690000D03*
X+1942000Y+690000D03*
X+3730000Y+700000D03*
X+3476000Y+700000D03*
X+3222000Y+700000D03*
X+5038000Y+700000D03*
X+4784000Y+700000D03*
X+4530000Y+700000D03*
D19*
X+7080000Y+2030000D03*
X+7080000Y+1522000D03*
D70*
X+6194000Y+690000D03*
X+5940000Y+690000D03*
X+5686000Y+690000D03*
D71*
X+3740000Y+2140000D03*
X+3740000Y+1124000D03*
X+6200000Y+2130000D03*
X+6200000Y+1114000D03*
X+2480000Y+2150000D03*
X+2480000Y+1134000D03*
X+5040000Y+2100000D03*
X+5040000Y+1084000D03*
M02*
