G04 PROTEUS GERBER X2 FILE*
%TF.GenerationSoftware,Labcenter,Proteus,8.13-SP0-Build31525*%
%TF.CreationDate,2025-01-17T15:38:28+00:00*%
%TF.FileFunction,Copper,L2,Bot*%
%TF.FilePolarity,Positive*%
%TF.Part,Single*%
%TF.SameCoordinates,{73f3b6ee-04d2-4b7e-bada-d99319bd8aaf}*%
%FSLAX45Y45*%
%MOMM*%
G01*
%TA.AperFunction,Conductor*%
%ADD19C,2.540000*%
%ADD70C,0.762000*%
%ADD71C,1.016000*%
%ADD20C,1.524000*%
%ADD21C,1.778000*%
%ADD22C,1.270000*%
%ADD23C,0.508000*%
%ADD24C,0.254000*%
%ADD25C,2.032000*%
%AMDIL000*
4,1,8,
-1.270000,0.457200,-0.965200,0.762000,0.965200,0.762000,1.270000,0.457200,1.270000,-0.457200,
0.965200,-0.762000,-0.965200,-0.762000,-1.270000,-0.457200,-1.270000,0.457200,
0*%
%TA.AperFunction,ComponentPad*%
%ADD10DIL000*%
%ADD11R,1.270000X1.270000*%
%TA.AperFunction,ComponentPad*%
%ADD12R,2.032000X2.032000*%
%TA.AperFunction,ComponentPad*%
%ADD13C,2.032000*%
%ADD14C,3.048000*%
%ADD15C,1.778000*%
%TA.AperFunction,ComponentPad*%
%ADD16C,1.524000*%
%TA.AperFunction,WasherPad*%
%ADD17R,1.580000X1.580000*%
%TA.AperFunction,ComponentPad*%
%ADD18C,1.580000*%
%TA.AperFunction,NonConductor*%
%ADD26C,0.203200*%
%TD.AperFunction*%
D19*
X+730000Y+2039620D02*
X+740000Y+2029620D01*
X+740000Y+1526000D01*
D70*
X+6440000Y+2790000D02*
X+6042000Y+2790000D01*
X+5280000Y+2282000D02*
X+5018000Y+2282000D01*
X+5010000Y+2290000D01*
X+6042000Y+2282000D02*
X+6572000Y+2282000D01*
D71*
X+6446000Y+1080000D02*
X+6750000Y+1384000D01*
X+6750000Y+2460000D01*
X+6572000Y+2282000D02*
X+6750000Y+2460000D01*
D20*
X+5430000Y+1080000D02*
X+5836647Y+1486647D01*
X+5836647Y+1796647D01*
X+6440000Y+1774000D02*
X+5859294Y+1774000D01*
X+5836647Y+1796647D01*
D70*
X+5010000Y+2280000D02*
X+5278000Y+2280000D01*
X+5280000Y+2282000D01*
X+5540000Y+2387830D02*
X+5540000Y+2440000D01*
X+5701563Y+2601563D01*
X+5711563Y+2601563D01*
X+5900000Y+2790000D01*
X+6042000Y+2790000D01*
D71*
X+4230000Y+1150000D02*
X+4230000Y+2443847D01*
X+4236153Y+2450000D01*
D21*
X+3670000Y+2760000D02*
X+4165350Y+2760000D01*
X+4236153Y+2689197D01*
X+4236153Y+2450000D01*
D71*
X+4640000Y+2940000D02*
X+4410618Y+3169382D01*
D22*
X+3214000Y+1150000D02*
X+2816800Y+1150000D01*
X+2816800Y+1587200D02*
X+2816800Y+1150000D01*
D70*
X+6750000Y+2460000D02*
X+6750000Y+2761061D01*
X+6496000Y+3015061D01*
X+5819142Y+3015061D01*
X+5680000Y+2875919D01*
X+5680000Y+2760000D01*
X+5460000Y+2540000D01*
X+5284000Y+2540000D01*
X+5280000Y+2536000D01*
X+5280000Y+2028000D02*
X+5458000Y+2028000D01*
X+5540000Y+2110000D01*
X+5540000Y+2387830D01*
X+5280000Y+2536000D02*
X+5104000Y+2536000D01*
X+4980000Y+2660000D01*
X+4666000Y+2660000D01*
X+4640000Y+2686000D01*
D20*
X+5836647Y+1796647D02*
X+5757573Y+1875721D01*
X+5757573Y+2367573D01*
X+5926000Y+2536000D01*
X+6042000Y+2536000D01*
D23*
X+4236153Y+2450000D02*
X+4236153Y+2410000D01*
X+4490000Y+2410000D01*
X+4520000Y+2440000D01*
X+5160001Y+2440000D01*
X+5190001Y+2410000D01*
X+5517830Y+2410000D01*
X+5540000Y+2387830D01*
D24*
X+4730000Y+2290000D02*
X+4773000Y+2290000D01*
D71*
X+4890000Y+540000D02*
X+4920000Y+540000D01*
X+4730000Y+730000D01*
X+4730000Y+1274000D01*
D70*
X+4773000Y+2290000D02*
X+5010000Y+2290000D01*
X+5010000Y+2280000D01*
D24*
X+1880000Y+2840000D02*
X+1870000Y+2830000D01*
D19*
X+730000Y+2540000D02*
X+1230000Y+2540000D01*
X+1530000Y+2840000D01*
X+1880000Y+2840000D01*
X+1870000Y+2330000D02*
X+1844561Y+2304561D01*
X+1844561Y+2039620D01*
X+730000Y+2039620D01*
D70*
X+5010000Y+1274000D02*
X+5010000Y+1416555D01*
X+4843827Y+1582728D01*
X+4691801Y+1582728D01*
X+4560000Y+1450927D01*
X+4560000Y+776238D01*
X+4363762Y+580000D01*
X+4050000Y+580000D01*
X+3890000Y+740000D01*
X+3890000Y+2040013D01*
D71*
X+3806359Y+2123654D01*
X+3690000Y+2123654D01*
D20*
X+4890000Y+276000D02*
X+6712112Y+276000D01*
X+6980000Y+543888D01*
X+6980000Y+2969999D01*
X+6772654Y+3177345D01*
X+4418581Y+3177345D01*
X+4410618Y+3169382D01*
D70*
X+5280000Y+2790000D02*
X+5130000Y+2940000D01*
X+4640000Y+2940000D01*
D71*
X+4410618Y+3169382D02*
X+3199382Y+3169382D01*
X+3040000Y+3010000D01*
X+3040000Y+2830000D01*
D25*
X+2786000Y+2830000D02*
X+1880000Y+2830000D01*
X+1880000Y+2840000D01*
D21*
X+3294000Y+2830000D02*
X+3590000Y+2830000D01*
X+3670000Y+2750000D01*
X+3670000Y+2760000D01*
D22*
X+2816800Y+1640000D02*
X+2816800Y+1587200D01*
X+3690000Y+2123654D02*
X+3237531Y+2123654D01*
X+3020000Y+1906123D01*
X+3020000Y+1640000D01*
D21*
X+3040000Y+2830000D02*
X+3040000Y+2599999D01*
X+2755001Y+2315000D01*
X+1949000Y+2315000D01*
X+1870000Y+2330000D01*
D20*
X+3700000Y+296000D02*
X+4890000Y+296000D01*
X+4890000Y+286000D01*
X+4890000Y+276000D01*
D71*
X+3700000Y+550000D02*
X+3710000Y+560000D01*
X+3710000Y+1744000D01*
X+3670000Y+1744000D01*
X+3223200Y+1640000D02*
X+3260000Y+1640000D01*
X+3430000Y+1470000D01*
X+3430000Y+360783D01*
X+3497655Y+293128D01*
X+3662635Y+293128D01*
X+3667861Y+298354D01*
X+3700000Y+296000D01*
D19*
X+2816800Y+1150000D02*
X+2230000Y+1150000D01*
X+1590000Y+510000D01*
X+740000Y+510000D01*
D21*
X+740000Y+1018000D02*
X+1468000Y+1018000D01*
X+2120000Y+1670000D01*
X+2480000Y+1670000D01*
X+3125616Y+2315616D01*
X+3901534Y+2315616D01*
X+3958575Y+2258575D01*
D71*
X+4057150Y+2160000D01*
X+4057150Y+867816D01*
X+4107950Y+817016D01*
X+4340000Y+817016D01*
X+4420000Y+897016D01*
X+4420000Y+2135433D01*
X+4574567Y+2290000D01*
X+4730000Y+2290000D01*
D10*
X+5280000Y+2790000D03*
D11*
X+5280000Y+2536000D03*
X+5280000Y+2282000D03*
D10*
X+5280000Y+2028000D03*
X+6042000Y+2028000D03*
X+6042000Y+2282000D03*
X+6042000Y+2536000D03*
X+6042000Y+2790000D03*
D12*
X+2786000Y+2830000D03*
X+3040000Y+2830000D03*
X+3294000Y+2830000D03*
D13*
X+4640000Y+2686000D03*
X+4640000Y+2940000D03*
D14*
X+730000Y+2039620D03*
X+730000Y+2540000D03*
X+740000Y+510000D03*
X+740000Y+1018000D03*
X+740000Y+1526000D03*
D15*
X+6440000Y+2790000D03*
X+6440000Y+1774000D03*
X+5430000Y+1080000D03*
X+6446000Y+1080000D03*
X+4230000Y+1150000D03*
X+3214000Y+1150000D03*
X+5010000Y+2290000D03*
X+5010000Y+1274000D03*
X+3670000Y+2760000D03*
X+3670000Y+1744000D03*
D10*
X+4890000Y+540000D03*
X+4890000Y+286000D03*
D15*
X+4730000Y+2290000D03*
X+4730000Y+1274000D03*
D10*
X+3700000Y+550000D03*
X+3700000Y+296000D03*
D16*
X+3223200Y+1640000D03*
X+3020000Y+1640000D03*
X+2816800Y+1640000D03*
D17*
X+1870000Y+2830000D03*
D18*
X+1870000Y+2330000D03*
D26*
X+5987600Y+456800D02*
X+6140000Y+456800D01*
X+6140000Y+609200D01*
X+5987600Y+609200D01*
X+6140000Y+533000D02*
X+6038400Y+533000D01*
X+5936800Y+558400D02*
X+5886000Y+609200D01*
X+5835200Y+609200D01*
X+5784400Y+558400D01*
X+5784400Y+507600D01*
X+5835200Y+456800D01*
X+5886000Y+456800D01*
X+5936800Y+507600D01*
X+5936800Y+558400D01*
X+5733600Y+609200D02*
X+5733600Y+456800D01*
X+5581200Y+609200D02*
X+5657400Y+533000D01*
X+5581200Y+456800D01*
X+5733600Y+533000D02*
X+5657400Y+533000D01*
X+70000Y+50000D02*
X+7160000Y+50000D01*
X+7160000Y+3340000D01*
X+70000Y+3340000D01*
X+70000Y+50000D01*
M02*
