G04 PROTEUS GERBER X2 FILE*
%TF.GenerationSoftware,Labcenter,Proteus,8.13-SP0-Build31525*%
%TF.CreationDate,2025-01-18T14:33:54+00:00*%
%TF.FileFunction,AssemblyDrawing,Top*%
%TF.FilePolarity,Positive*%
%TF.Part,Single*%
%TF.SameCoordinates,{d9d58708-2b01-4210-ba30-9eb4af83a777}*%
%FSLAX45Y45*%
%MOMM*%
G01*
%TA.AperFunction,Material*%
%ADD20C,0.203200*%
%ADD29C,1.219200*%
%ADD72C,0.139330*%
%ADD73C,0.914400*%
%ADD30C,0.186690*%
%ADD31C,0.812800*%
%ADD32C,0.110060*%
%ADD33C,1.016000*%
%ADD34C,0.355600*%
%ADD35C,0.711200*%
%ADD36C,0.111760*%
%ADD37C,0.191340*%
%ADD38C,0.128010*%
%ADD39C,1.524000*%
%ADD40C,0.394540*%
%ADD41C,0.161710*%
%TD.AperFunction*%
D20*
X+361840Y+2534388D02*
X+1398160Y+2534388D01*
X+1398160Y+3570708D01*
X+361840Y+3570708D01*
X+361840Y+2534388D01*
D29*
X+880000Y+3306548D02*
X+880000Y+3306548D01*
D72*
X+535142Y+2848187D02*
X+441090Y+2848187D01*
X+441090Y+2931789D01*
X+535142Y+2931789D01*
X+441090Y+2889988D02*
X+503791Y+2889988D01*
X+566493Y+2848187D02*
X+566493Y+2931789D01*
X+660545Y+2848187D01*
X+660545Y+2931789D01*
X+691896Y+2931789D02*
X+785948Y+2931789D01*
X+738922Y+2931789D02*
X+738922Y+2848187D01*
X+817299Y+2848187D02*
X+817299Y+2931789D01*
X+895675Y+2931789D01*
X+911351Y+2917855D01*
X+911351Y+2903922D01*
X+895675Y+2889988D01*
X+817299Y+2889988D01*
X+895675Y+2889988D02*
X+911351Y+2876054D01*
X+911351Y+2848187D01*
X+942702Y+2848187D02*
X+942702Y+2903922D01*
X+974052Y+2931789D01*
X+1005403Y+2931789D01*
X+1036754Y+2903922D01*
X+1036754Y+2848187D01*
X+942702Y+2876054D02*
X+1036754Y+2876054D01*
X+1068105Y+2848187D02*
X+1068105Y+2931789D01*
X+1130806Y+2931789D01*
X+1162157Y+2903922D01*
X+1162157Y+2876054D01*
X+1130806Y+2848187D01*
X+1068105Y+2848187D01*
X+1193508Y+2848187D02*
X+1193508Y+2903922D01*
X+1224858Y+2931789D01*
X+1256209Y+2931789D01*
X+1287560Y+2903922D01*
X+1287560Y+2848187D01*
X+1193508Y+2876054D02*
X+1287560Y+2876054D01*
D20*
X+2557760Y+2066248D02*
X+2844780Y+2066248D01*
X+2844780Y+3310848D01*
X+2557760Y+3310848D01*
X+2557760Y+2066248D01*
D73*
X+2700000Y+3196548D02*
X+2700000Y+3196548D01*
D30*
X+2757277Y+2440517D02*
X+2645263Y+2440517D01*
X+2645263Y+2524527D01*
X+2682601Y+2566532D01*
X+2719939Y+2566532D01*
X+2757277Y+2524527D01*
X+2757277Y+2440517D01*
X+2663932Y+2629540D02*
X+2645263Y+2650543D01*
X+2645263Y+2713551D01*
X+2663932Y+2734553D01*
X+2682601Y+2734553D01*
X+2701270Y+2713551D01*
X+2701270Y+2650543D01*
X+2719939Y+2629540D01*
X+2757277Y+2629540D01*
X+2757277Y+2734553D01*
D20*
X+2852840Y+835388D02*
X+3127160Y+835388D01*
X+3127160Y+1363708D01*
X+2852840Y+1363708D01*
X+2852840Y+835388D01*
D31*
X+2990000Y+1226548D02*
X+2990000Y+1226548D01*
D32*
X+3001007Y+911589D02*
X+3012014Y+911589D01*
X+3023020Y+923971D01*
X+3023020Y+973500D01*
X+3012014Y+985883D01*
X+2956981Y+985883D01*
X+2967987Y+1023030D02*
X+2956981Y+1035412D01*
X+2956981Y+1072559D01*
X+2967987Y+1084942D01*
X+2978994Y+1084942D01*
X+2990000Y+1072559D01*
X+3001007Y+1084942D01*
X+3012014Y+1084942D01*
X+3023020Y+1072559D01*
X+3023020Y+1035412D01*
X+3012014Y+1023030D01*
X+2990000Y+1047795D02*
X+2990000Y+1072559D01*
D20*
X+1745840Y+859548D02*
X+2274160Y+859548D01*
X+2274160Y+5685548D01*
X+1745840Y+5685548D01*
X+1745840Y+859548D01*
D33*
X+2010000Y+986548D02*
X+2010000Y+986548D01*
D34*
X+2116680Y+3041408D02*
X+1903320Y+3041408D01*
X+1903320Y+3241433D01*
X+1938880Y+3281438D01*
X+1974440Y+3281438D01*
X+2010000Y+3241433D01*
X+2010000Y+3041408D01*
X+2010000Y+3241433D02*
X+2045560Y+3281438D01*
X+2116680Y+3281438D01*
X+1938880Y+3401453D02*
X+1903320Y+3441458D01*
X+1903320Y+3561473D01*
X+1938880Y+3601478D01*
X+1974440Y+3601478D01*
X+2010000Y+3561473D01*
X+2045560Y+3601478D01*
X+2081120Y+3601478D01*
X+2116680Y+3561473D01*
X+2116680Y+3441458D01*
X+2081120Y+3401453D01*
X+2010000Y+3481463D02*
X+2010000Y+3561473D01*
D20*
X+3243000Y+2752388D02*
X+8069000Y+2752388D01*
X+8069000Y+3280708D01*
X+3243000Y+3280708D01*
X+3243000Y+2752388D01*
D33*
X+3370000Y+3016548D02*
X+3370000Y+3016548D01*
D34*
X+5424860Y+2909868D02*
X+5424860Y+3123228D01*
X+5624885Y+3123228D01*
X+5664890Y+3087668D01*
X+5664890Y+3052108D01*
X+5624885Y+3016548D01*
X+5424860Y+3016548D01*
X+5624885Y+3016548D02*
X+5664890Y+2980988D01*
X+5664890Y+2909868D01*
X+5824910Y+3052108D02*
X+5904920Y+3123228D01*
X+5904920Y+2909868D01*
D20*
X+3243000Y+1912388D02*
X+8069000Y+1912388D01*
X+8069000Y+2440708D01*
X+3243000Y+2440708D01*
X+3243000Y+1912388D01*
D33*
X+3370000Y+2176548D02*
X+3370000Y+2176548D01*
D34*
X+5424860Y+2069868D02*
X+5424860Y+2283228D01*
X+5624885Y+2283228D01*
X+5664890Y+2247668D01*
X+5664890Y+2212108D01*
X+5624885Y+2176548D01*
X+5424860Y+2176548D01*
X+5624885Y+2176548D02*
X+5664890Y+2140988D01*
X+5664890Y+2069868D01*
X+5784905Y+2247668D02*
X+5824910Y+2283228D01*
X+5944925Y+2283228D01*
X+5984930Y+2247668D01*
X+5984930Y+2212108D01*
X+5944925Y+2176548D01*
X+5824910Y+2176548D01*
X+5784905Y+2140988D01*
X+5784905Y+2069868D01*
X+5984930Y+2069868D01*
D20*
X+7812840Y+1165388D02*
X+8087160Y+1165388D01*
X+8087160Y+1693708D01*
X+7812840Y+1693708D01*
X+7812840Y+1165388D01*
D35*
X+7950000Y+1302548D02*
X+7950000Y+1302548D01*
D36*
X+7972352Y+1490762D02*
X+7983528Y+1478189D01*
X+7983528Y+1440470D01*
X+7961176Y+1415324D01*
X+7938824Y+1415324D01*
X+7916472Y+1440470D01*
X+7916472Y+1478189D01*
X+7927648Y+1490762D01*
X+7938824Y+1541054D02*
X+7916472Y+1566200D01*
X+7983528Y+1566200D01*
D20*
X+8398840Y+2869388D02*
X+9181160Y+2869388D01*
X+9181160Y+3270708D01*
X+8398840Y+3270708D01*
X+8398840Y+2869388D01*
D33*
X+8536000Y+3006548D02*
X+8536000Y+3006548D01*
D37*
X+8711769Y+3127451D02*
X+8711769Y+3031778D01*
X+8733295Y+3012644D01*
X+8819400Y+3012644D01*
X+8840927Y+3031778D01*
X+8840927Y+3127451D01*
X+8927032Y+3089182D02*
X+8970085Y+3127451D01*
X+8970085Y+3012644D01*
D20*
X+8708400Y+1131648D02*
X+8911600Y+1131648D01*
X+8911600Y+2325448D01*
X+8708400Y+2325448D01*
X+8708400Y+1131648D01*
D35*
X+8810000Y+2236548D02*
X+8810000Y+2236548D01*
D38*
X+8848404Y+1551105D02*
X+8771595Y+1551105D01*
X+8771595Y+1608711D01*
X+8797198Y+1637514D01*
X+8822801Y+1637514D01*
X+8848404Y+1608711D01*
X+8848404Y+1551105D01*
X+8797198Y+1695121D02*
X+8771595Y+1723924D01*
X+8848404Y+1723924D01*
D20*
X+2963800Y+4292388D02*
X+4558920Y+4292388D01*
X+4558920Y+4973108D01*
X+2963800Y+4973108D01*
X+2963800Y+4292388D01*
D39*
X+3217800Y+4556548D02*
X+3217800Y+4556548D01*
D40*
X+3571369Y+4672202D02*
X+3660141Y+4751111D01*
X+3748914Y+4751111D01*
X+3837687Y+4672202D01*
X+3837687Y+4593293D01*
X+3748914Y+4514384D01*
X+3660141Y+4514384D01*
X+3571369Y+4593293D01*
X+3571369Y+4672202D01*
X+3748914Y+4593293D02*
X+3837687Y+4514384D01*
X+4015232Y+4672202D02*
X+4104005Y+4751111D01*
X+4104005Y+4514384D01*
D20*
X+5229900Y+4312388D02*
X+6825020Y+4312388D01*
X+6825020Y+4993108D01*
X+5229900Y+4993108D01*
X+5229900Y+4312388D01*
D39*
X+5483900Y+4576548D02*
X+5483900Y+4576548D01*
D40*
X+5837469Y+4692202D02*
X+5926241Y+4771111D01*
X+6015014Y+4771111D01*
X+6103787Y+4692202D01*
X+6103787Y+4613293D01*
X+6015014Y+4534384D01*
X+5926241Y+4534384D01*
X+5837469Y+4613293D01*
X+5837469Y+4692202D01*
X+6015014Y+4613293D02*
X+6103787Y+4534384D01*
X+6236946Y+4731657D02*
X+6281332Y+4771111D01*
X+6414491Y+4771111D01*
X+6458878Y+4731657D01*
X+6458878Y+4692202D01*
X+6414491Y+4652748D01*
X+6281332Y+4652748D01*
X+6236946Y+4613293D01*
X+6236946Y+4534384D01*
X+6458878Y+4534384D01*
D20*
X+7509900Y+4332388D02*
X+9105020Y+4332388D01*
X+9105020Y+5013108D01*
X+7509900Y+5013108D01*
X+7509900Y+4332388D01*
D39*
X+7763900Y+4596548D02*
X+7763900Y+4596548D01*
D40*
X+8117469Y+4712202D02*
X+8206241Y+4791111D01*
X+8295014Y+4791111D01*
X+8383787Y+4712202D01*
X+8383787Y+4633293D01*
X+8295014Y+4554384D01*
X+8206241Y+4554384D01*
X+8117469Y+4633293D01*
X+8117469Y+4712202D01*
X+8295014Y+4633293D02*
X+8383787Y+4554384D01*
X+8516946Y+4751657D02*
X+8561332Y+4791111D01*
X+8694491Y+4791111D01*
X+8738878Y+4751657D01*
X+8738878Y+4712202D01*
X+8694491Y+4672748D01*
X+8738878Y+4633293D01*
X+8738878Y+4593838D01*
X+8694491Y+4554384D01*
X+8561332Y+4554384D01*
X+8516946Y+4593838D01*
X+8605719Y+4672748D02*
X+8694491Y+4672748D01*
D20*
X+10775840Y+4401528D02*
X+11456560Y+4401528D01*
X+11456560Y+5996648D01*
X+10775840Y+5996648D01*
X+10775840Y+4401528D01*
D39*
X+11040000Y+5742648D02*
X+11040000Y+5742648D01*
D40*
X+11076746Y+4678897D02*
X+10997837Y+4767669D01*
X+10997837Y+4856442D01*
X+11076746Y+4945215D01*
X+11155655Y+4945215D01*
X+11234564Y+4856442D01*
X+11234564Y+4767669D01*
X+11155655Y+4678897D01*
X+11076746Y+4678897D01*
X+11155655Y+4856442D02*
X+11234564Y+4945215D01*
X+11155655Y+5300306D02*
X+11155655Y+5033988D01*
X+10997837Y+5211533D01*
X+11234564Y+5211533D01*
D20*
X+10765840Y+2171528D02*
X+11446560Y+2171528D01*
X+11446560Y+3766648D01*
X+10765840Y+3766648D01*
X+10765840Y+2171528D01*
D39*
X+11030000Y+3512648D02*
X+11030000Y+3512648D01*
D40*
X+11066746Y+2448897D02*
X+10987837Y+2537669D01*
X+10987837Y+2626442D01*
X+11066746Y+2715215D01*
X+11145655Y+2715215D01*
X+11224564Y+2626442D01*
X+11224564Y+2537669D01*
X+11145655Y+2448897D01*
X+11066746Y+2448897D01*
X+11145655Y+2626442D02*
X+11224564Y+2715215D01*
X+10987837Y+3070306D02*
X+10987837Y+2848374D01*
X+11066746Y+2848374D01*
X+11066746Y+3025919D01*
X+11106200Y+3070306D01*
X+11185110Y+3070306D01*
X+11224564Y+3025919D01*
X+11224564Y+2892760D01*
X+11185110Y+2848374D01*
D20*
X+10785840Y+101528D02*
X+11466560Y+101528D01*
X+11466560Y+1696648D01*
X+10785840Y+1696648D01*
X+10785840Y+101528D01*
D39*
X+11050000Y+1442648D02*
X+11050000Y+1442648D01*
D40*
X+11086746Y+378897D02*
X+11007837Y+467669D01*
X+11007837Y+556442D01*
X+11086746Y+645215D01*
X+11165655Y+645215D01*
X+11244564Y+556442D01*
X+11244564Y+467669D01*
X+11165655Y+378897D01*
X+11086746Y+378897D01*
X+11165655Y+556442D02*
X+11244564Y+645215D01*
X+11047291Y+1000306D02*
X+11007837Y+955919D01*
X+11007837Y+822760D01*
X+11047291Y+778374D01*
X+11205110Y+778374D01*
X+11244564Y+822760D01*
X+11244564Y+955919D01*
X+11205110Y+1000306D01*
X+11165655Y+1000306D01*
X+11126200Y+955919D01*
X+11126200Y+778374D01*
D20*
X+9167840Y+238388D02*
X+10204160Y+238388D01*
X+10204160Y+1274708D01*
X+9167840Y+1274708D01*
X+9167840Y+238388D01*
D29*
X+9940000Y+756548D02*
X+9940000Y+756548D01*
D41*
X+9555783Y+319925D02*
X+9571954Y+338117D01*
X+9571954Y+410888D01*
X+9555783Y+429080D01*
X+9539611Y+429080D01*
X+9523440Y+410888D01*
X+9523440Y+338117D01*
X+9507269Y+319925D01*
X+9491097Y+319925D01*
X+9474926Y+338117D01*
X+9474926Y+410888D01*
X+9491097Y+429080D01*
X+9571954Y+465466D02*
X+9507269Y+465466D01*
X+9474926Y+501851D01*
X+9474926Y+538236D01*
X+9507269Y+574621D01*
X+9571954Y+574621D01*
X+9539611Y+465466D02*
X+9539611Y+574621D01*
X+9474926Y+611007D02*
X+9571954Y+611007D01*
X+9571954Y+720162D01*
X+9474926Y+774740D02*
X+9474926Y+847511D01*
X+9474926Y+811125D02*
X+9571954Y+811125D01*
X+9571954Y+774740D02*
X+9571954Y+847511D01*
X+9571954Y+902089D02*
X+9474926Y+902089D01*
X+9474926Y+974859D01*
X+9507269Y+1011244D01*
X+9539611Y+1011244D01*
X+9571954Y+974859D01*
X+9571954Y+902089D01*
X+9571954Y+1047630D02*
X+9507269Y+1047630D01*
X+9474926Y+1084015D01*
X+9474926Y+1120400D01*
X+9507269Y+1156785D01*
X+9571954Y+1156785D01*
X+9539611Y+1047630D02*
X+9539611Y+1156785D01*
M02*
